# xmcd
#
# Track frame offsets: 
#        150
#        11118
#        21610
#        34386
#        46306
#        58243
#        67622
#        78105
#        89435
#        102383
#        116977
#        130278
#        143927
#        155996
#        167860
#        181879
#        193281
#        207397
#        220270
#        230914
#
# Disc length: 3249 seconds
#
# Revision: 1
# Processed by: cddbd v1.5.2PL0 Copyright (c) Steve Scherf et al.
# Submitted via: ExactAudioCopyFreeDBPlugin 1.0
#
DISCID=380caf14
DTITLE=Jimmy Reed, Otis Rush - ABC Of The Blues - Vol. 37 Reed, Rush
DYEAR=2010
DGENRE=Blues
TTITLE0=Jimmy Reed - Baby What You Want Me To Do
TTITLE1=Jimmy Reed - Found Love
TTITLE2=Jimmy Reed - Big Boss Man
TTITLE3=Jimmy Reed - Hush hush
TTITLE4=Jimmy Reed - I'm Nervous
TTITLE5=Jimmy Reed - Going By The River Pt. 1
TTITLE6=Jimmy Reed - I Ain't Got You
TTITLE7=Jimmy Reed - Come Love
TTITLE8=Jimmy Reed - Meet Me
TTITLE9=Jimmy Reed - I Was So Wrong
TTITLE10=Otis Rush - Checking On My Baby
TTITLE11=Otis Rush - Love That Woman
TTITLE12=Otis Rush - My Baby Is A Good'un
TTITLE13=Otis Rush - All Your Love
TTITLE14=Otis Rush - If You Were Mine
TTITLE15=Otis Rush - Violent Love
TTITLE16=Otis Rush - My Love Will Never Die
TTITLE17=Otis Rush - Three Times A Fool
TTITLE18=Otis Rush - Keep On Loving Me Baby
TTITLE19=Otis Rush - It Takes Time
EXTD=
EXTT0=
EXTT1=
EXTT2=
EXTT3=
EXTT4=
EXTT5=
EXTT6=
EXTT7=
EXTT8=
EXTT9=
EXTT10=
EXTT11=
EXTT12=
EXTT13=
EXTT14=
EXTT15=
EXTT16=
EXTT17=
EXTT18=
EXTT19=
PLAYORDER=
